<svg width="140" height="14" viewBox="0 0 140 14" fill="none" xmlns="http://www.w3.org/2000/svg">
<path d="M0 13.8204V1.69524C0 1.06125 0.108968 0.645189 0.326904 0.447065C0.54484 0.248942 0.970805 0.14988 1.6048 0.14988H15.3348V2.70567H4.87384V5.55865H14.3838V8.08473H4.87384V11.2646H15.3348V13.8204H0Z" fill="#171717"/>
<path d="M23.4321 8.88713C23.4717 8.88713 23.5807 8.88713 23.759 8.88713C23.9571 8.88713 24.185 8.88713 24.4426 8.88713C24.7001 8.88713 24.9478 8.88713 25.1855 8.88713C25.4431 8.88713 25.6511 8.88713 25.8096 8.88713C25.9681 8.88713 26.0474 8.88713 26.0474 8.88713L25.0964 6.03415C24.9775 5.75677 24.8388 5.4794 24.6803 5.20203C24.5416 4.92466 24.393 4.677 24.2345 4.45907C24.0958 4.24113 23.9571 4.11235 23.8185 4.07273C23.6005 4.13216 23.442 4.23122 23.343 4.36991C23.2439 4.48878 23.1746 4.60766 23.1349 4.72653L19.5687 13.8204H15.7945L20.5494 2.46792C20.8862 1.69524 21.3419 1.10087 21.9165 0.684813C22.491 0.248942 23.3925 0.0310059 24.6209 0.0310059C25.7304 0.0310059 26.612 0.229129 27.2658 0.625376C27.9196 1.02162 28.4248 1.63581 28.7815 2.46792L33.5364 13.8204H28.2465L26.9686 10.7594L22.0948 10.7297C22.0948 10.1551 22.1938 9.70934 22.392 9.39234C22.6099 9.05553 22.9566 8.88713 23.4321 8.88713Z" fill="#171717"/>
<path d="M34.3209 10.5811C34.8162 10.799 35.4502 10.9674 36.2229 11.0863C36.9956 11.1854 37.798 11.2448 38.6301 11.2646C39.4622 11.2844 40.1953 11.2943 40.8293 11.2943C41.067 11.2943 41.3642 11.2943 41.7209 11.2943C42.0973 11.2943 42.4044 11.2844 42.6421 11.2646C43.1771 11.2646 43.6327 11.2151 44.0092 11.116C44.3856 10.9971 44.663 10.8188 44.8413 10.5811C45.0394 10.3433 45.1385 10.0065 45.1385 9.57065C45.1385 9.05553 44.9899 8.71872 44.6927 8.56022C44.3955 8.38191 43.9398 8.29276 43.3256 8.29276C43.1077 8.29276 42.8502 8.29276 42.553 8.29276C42.2756 8.29276 41.919 8.29276 41.4831 8.29276C41.0472 8.29276 40.4826 8.29276 39.7891 8.29276C39.1552 8.29276 38.5113 8.26304 37.8574 8.2036C37.2234 8.14416 36.6489 8.00548 36.1338 7.78754C35.6186 7.54979 35.2026 7.18327 34.8856 6.68796C34.5884 6.17284 34.4398 5.4695 34.4398 4.57794C34.4398 3.50807 34.6181 2.67596 34.9747 2.08158C35.3512 1.4674 35.8663 1.01172 36.5201 0.714532C37.1937 0.417347 37.9862 0.229129 38.8976 0.14988C39.8288 0.0706306 40.8491 0.0310059 41.9586 0.0310059C42.6322 0.0310059 43.3554 0.0409119 44.1281 0.060724C44.9205 0.0805367 45.6536 0.110255 46.3272 0.14988C47.0207 0.189504 47.5556 0.258848 47.932 0.35791C48.6056 0.397534 49.1208 0.575845 49.4774 0.892843C49.8538 1.20984 50.042 1.60609 50.042 2.08158C50.042 2.16083 50.042 2.29952 50.042 2.49764C50.042 2.67595 50.042 2.85427 50.042 3.03258C50.042 3.21089 50.042 3.30995 50.042 3.32976C49.8835 3.19108 49.5863 3.08211 49.1505 3.00286C48.7344 2.9038 48.2391 2.83445 47.6646 2.79483C47.1098 2.7552 46.5551 2.72549 46.0003 2.70567C45.4654 2.68586 44.9899 2.67595 44.5738 2.67595H41.8992C41.3642 2.67595 40.9085 2.72549 40.5321 2.82455C40.1755 2.9038 39.908 3.05239 39.7297 3.27033C39.5514 3.48826 39.4622 3.79535 39.4622 4.1916C39.4622 4.5086 39.5217 4.76616 39.6406 4.96428C39.7594 5.14259 39.9476 5.27137 40.2052 5.35062C40.4628 5.42987 40.7996 5.4695 41.2156 5.4695C42.4242 5.4695 43.395 5.4695 44.1281 5.4695C44.8611 5.4695 45.3366 5.4695 45.5545 5.4695C46.5055 5.4695 47.3377 5.54875 48.0509 5.70724C48.7641 5.86574 49.3189 6.22237 49.7151 6.77711C50.1114 7.33186 50.3095 8.18379 50.3095 9.33291C50.3095 10.4226 50.0916 11.2943 49.6557 11.9481C49.2198 12.5821 48.6155 13.0477 47.8429 13.3449C47.09 13.6421 46.2083 13.8204 45.1979 13.8798C44.2469 13.9393 43.3455 13.969 42.4935 13.969C41.6416 13.969 40.7401 13.969 39.7891 13.969C38.9967 13.9492 38.2636 13.9096 37.59 13.8501C36.9362 13.8105 36.3616 13.7312 35.8663 13.6124C35.371 13.4737 34.9847 13.2954 34.7073 13.0774C34.4497 12.8397 34.3209 12.5326 34.3209 12.1562V10.5811Z" fill="#171717"/>
<path d="M56.865 13.8204V8.38191L51.0402 0.892843L50.4161 0.14988H57.1919L60.5501 5.11287L63.7597 0.14988H68.158L67.3556 0.981999L61.7388 8.38191V12.0373C61.7586 12.5326 61.6992 12.909 61.5605 13.1666C61.4416 13.4242 61.2237 13.6025 60.9067 13.7015C60.6095 13.7808 60.1737 13.8204 59.5991 13.8204H56.865Z" fill="#171717"/>
<path d="M77.7801 9.21403C77.7801 9.21403 77.582 9.21403 77.1857 9.21403C76.8093 9.21403 76.3239 9.22394 75.7295 9.24375C75.1351 9.24375 74.521 9.24375 73.887 9.24375V13.8204H69.0131V1.96271C69.0131 1.38815 69.1419 0.942374 69.3995 0.625376C69.657 0.308379 70.1821 0.14988 70.9745 0.14988C71.2717 0.14988 71.7175 0.14988 72.3119 0.14988C72.9062 0.130068 73.5898 0.120161 74.3625 0.120161C75.1351 0.120161 75.9276 0.120161 76.7399 0.120161C77.5721 0.100349 78.3646 0.100349 79.1174 0.120161C79.8703 0.120161 80.5241 0.130068 81.0788 0.14988C81.6534 0.14988 82.0695 0.159786 82.327 0.179598C83.3969 0.27866 84.1993 0.605564 84.7342 1.16031C85.2692 1.69524 85.5366 2.57689 85.5366 3.80526C85.5366 4.91475 85.4475 5.72706 85.2692 6.24218C85.1107 6.73749 84.8432 7.12383 84.4668 7.4012C84.3281 7.50026 84.1399 7.57951 83.9021 7.63895C83.6644 7.69839 83.3969 7.72811 83.0997 7.72811V7.84698C83.2384 7.84698 83.387 7.84698 83.5455 7.84698C83.7238 7.84698 83.8724 7.85689 83.9913 7.8767C84.7441 8.01538 85.1899 8.30266 85.3286 8.73853C85.4871 9.17441 85.5663 9.63009 85.5663 10.1056V12.7208C85.5663 13.0973 85.606 13.3746 85.6852 13.5529C85.7645 13.7114 85.814 13.8006 85.8338 13.8204H82.2082C81.693 13.8204 81.2869 13.7412 80.9897 13.5827C80.7123 13.4242 80.5736 13.0873 80.5736 12.5722V10.6108C80.5736 9.99662 80.4349 9.61028 80.1576 9.45178C79.9 9.29328 79.4344 9.21403 78.7608 9.21403H77.7801ZM73.887 6.89599C74.1049 6.89599 74.4318 6.90589 74.8677 6.9257C75.3234 6.9257 75.8187 6.9257 76.3536 6.9257C76.8885 6.9257 77.3739 6.9257 77.8098 6.9257C78.2655 6.9257 78.5924 6.9257 78.7905 6.9257C79.266 6.9257 79.6821 6.77711 80.0387 6.47993C80.4151 6.16293 80.6034 5.57846 80.6034 4.72653C80.6034 4.13216 80.4944 3.66657 80.2765 3.32976C80.0783 2.99295 79.7415 2.80474 79.266 2.76511C78.9886 2.70567 78.6122 2.67595 78.1367 2.67595C77.681 2.67595 77.1956 2.67595 76.6805 2.67595C76.1852 2.67595 75.7295 2.68586 75.3135 2.70567C74.8974 2.70567 74.5903 2.70567 74.3922 2.70567C74.3526 2.70567 74.2535 2.73539 74.095 2.79483C73.9563 2.85427 73.887 3.00286 73.887 3.24061V6.89599Z" fill="#171717"/>
<path d="M88.0121 13.8204V1.69524C88.0121 1.06125 88.1211 0.645189 88.339 0.447065C88.5569 0.248942 88.9829 0.14988 89.6169 0.14988H103.347V2.70567H92.8859V5.55865H102.396V8.08473H92.8859V11.2646H103.347V13.8204H88.0121Z" fill="#171717"/>
<path d="M105.411 13.8204V1.81412C105.411 1.12069 105.51 0.674907 105.709 0.476783C105.907 0.258848 106.372 0.14988 107.105 0.14988H111.712L118.19 8.88713L118.369 9.57065V0.14988H121.935C121.895 0.189504 121.866 0.318285 121.846 0.536221C121.846 0.734344 121.846 0.962186 121.846 1.21975C121.846 1.45749 121.846 1.67543 121.846 1.87355V12.3642C121.846 13.018 121.707 13.4242 121.43 13.5827C121.152 13.7412 120.637 13.8204 119.884 13.8204H115.694L109.067 4.90484L108.918 4.16188V13.8204H105.411Z" fill="#171717"/>
<path d="M123.595 0.14988H140V2.73539H134.264V12.2156C134.264 12.8496 134.165 13.2756 133.967 13.4935C133.769 13.7114 133.323 13.8204 132.63 13.8204H129.361V2.73539H123.595V0.14988Z" fill="#171717"/>
</svg>
