<svg width="20" height="20" viewBox="0 0 20 20" fill="none" xmlns="http://www.w3.org/2000/svg">
<path d="M17.5938 4.5C17.3438 4.15625 17.0938 3.84375 16.8125 3.53125L13.125 6.21875V6.84375H14.375L17.5938 4.5ZM5.78125 6.875L2.46875 4.4375C2.34375 4.59375 2.25 4.75 2.125 4.90625C2.09375 4.9375 2.09375 4.96875 2.0625 4.96875C1.96875 5.125 1.84375 5.3125 1.75 5.46875L3.65625 6.875H5.78125Z" fill="#ED4C5C"/>
<path d="M19.1875 8.125H11.875V0.8125C11.2812 0.6875 10.6562 0.625 10 0.625C9.34375 0.625 8.71875 0.6875 8.125 0.8125V8.125H0.8125C0.6875 8.71875 0.625 9.34375 0.625 10C0.625 10.6562 0.6875 11.2812 0.8125 11.875H8.125V19.1875C8.71875 19.3125 9.34375 19.375 10 19.375C10.6562 19.375 11.2812 19.3125 11.875 19.1875V11.875H19.1875C19.3125 11.2812 19.375 10.6562 19.375 10C19.375 9.34375 19.3125 8.71875 19.1875 8.125Z" fill="#ED4C5C"/>
</svg>
