<svg width="35" height="36" viewBox="0 0 35 36" fill="none" xmlns="http://www.w3.org/2000/svg">
<path d="M17.1875 0.812496C13.7881 0.812496 10.4651 1.82053 7.63864 3.70911C4.81217 5.5977 2.60921 8.28202 1.30833 11.4226C0.0074468 14.5632 -0.332923 18.0191 0.330261 21.3531C0.993444 24.6872 2.63039 27.7497 5.03411 30.1534C7.43783 32.5571 10.5003 34.1941 13.8344 34.8572C17.1684 35.5204 20.6243 35.1801 23.7649 33.8792C26.9055 32.5783 29.5898 30.3753 31.4784 27.5489C33.367 24.7224 34.375 21.3994 34.375 18C34.37 13.4431 32.5576 9.07432 29.3354 5.85213C26.1132 2.62993 21.7444 0.8175 17.1875 0.812496ZM7.02454 30.1034C8.04463 28.3072 9.52256 26.8134 11.3078 25.7742C13.0931 24.735 15.1218 24.1876 17.1875 24.1876C19.2532 24.1876 21.282 24.735 23.0672 25.7742C24.8525 26.8134 26.3304 28.3072 27.3505 30.1034C24.5058 32.4988 20.9064 33.8125 17.1875 33.8125C13.4686 33.8125 9.86923 32.4988 7.02454 30.1034ZM28.3886 29.1495C26.6807 26.2941 23.9426 24.2025 20.7384 23.3058C22.2282 22.5135 23.4102 21.2458 24.0964 19.7043C24.7826 18.1628 24.9336 16.4361 24.5253 14.7989C24.117 13.1618 23.173 11.7081 21.8433 10.6694C20.5137 9.63057 18.8748 9.06628 17.1875 9.06628C15.5002 9.06628 13.8613 9.63057 12.5317 10.6694C11.202 11.7081 10.258 13.1618 9.84972 14.7989C9.44146 16.4361 9.59243 18.1628 10.2786 19.7043C10.9648 21.2458 12.1468 22.5135 13.6366 23.3058C10.4325 24.2025 7.69435 26.2941 5.98641 29.1495C3.78065 26.9359 2.28027 24.1183 1.67472 21.0525C1.06917 17.9867 1.38561 14.8102 2.58408 11.9242C3.78255 9.03811 5.8093 6.57187 8.40843 4.83687C11.0076 3.10187 14.0625 2.1759 17.1875 2.1759C20.3125 2.1759 23.3675 3.10187 25.9666 4.83687C28.5657 6.57187 30.5925 9.03811 31.7909 11.9242C32.9894 14.8102 33.3058 17.9867 32.7003 21.0525C32.0947 24.1183 30.5944 26.9359 28.3886 29.1495ZM17.1875 22.8125C15.9637 22.8125 14.7674 22.4496 13.7499 21.7697C12.7324 21.0898 11.9393 20.1235 11.471 18.9928C11.0027 17.8622 10.8802 16.6181 11.1189 15.4179C11.3576 14.2176 11.9469 13.1151 12.8123 12.2498C13.6776 11.3844 14.7801 10.7951 15.9804 10.5564C17.1806 10.3176 18.4247 10.4402 19.5554 10.9085C20.686 11.3768 21.6523 12.1699 22.3322 13.1874C23.0121 14.2049 23.375 15.4012 23.375 16.625C23.375 18.266 22.7231 19.8398 21.5627 21.0002C20.4023 22.1606 18.8285 22.8125 17.1875 22.8125Z" fill="#171717"/>
</svg>
